<svg width="416" height="501" viewBox="0 0 416 501" fill="none" xmlns="http://www.w3.org/2000/svg">
<rect width="209" height="501" fill="#971515"/>
<rect x="209" width="207" height="501" fill="#2D3A84"/>
<path d="M160.906 140L147.994 106.4H156.922L165.802 131.408L174.826 106.4H183.418L170.314 140H160.906ZM186.547 140V105.824L194.323 104.624V118.4C195.155 117.376 196.195 116.576 197.443 116C198.723 115.392 200.099 115.088 201.571 115.088C203.619 115.088 205.459 115.664 207.091 116.816C208.755 117.936 210.067 119.44 211.027 121.328C212.019 123.216 212.515 125.328 212.515 127.664C212.515 129.968 212.003 132.064 210.979 133.952C209.955 135.84 208.563 137.344 206.803 138.464C205.075 139.584 203.139 140.144 200.995 140.144C199.651 140.144 198.387 139.872 197.203 139.328C196.051 138.752 195.059 137.968 194.227 136.976V140H186.547ZM198.979 133.76C200.131 133.76 201.139 133.504 202.003 132.992C202.899 132.448 203.603 131.712 204.115 130.784C204.627 129.856 204.883 128.8 204.883 127.616C204.883 126.432 204.627 125.392 204.115 124.496C203.603 123.568 202.899 122.848 202.003 122.336C201.107 121.792 200.099 121.52 198.979 121.52C198.019 121.52 197.155 121.696 196.387 122.048C195.651 122.368 194.963 122.864 194.323 123.536V131.792C194.931 132.4 195.635 132.88 196.435 133.232C197.235 133.584 198.083 133.76 198.979 133.76ZM225.064 140.384C223.4 140.384 221.912 140.064 220.6 139.424C219.32 138.784 218.312 137.904 217.576 136.784C216.872 135.664 216.52 134.368 216.52 132.896C216.52 131.36 216.904 130.064 217.672 129.008C218.44 127.92 219.544 127.104 220.984 126.56C222.424 125.984 224.152 125.696 226.168 125.696C227.064 125.696 227.976 125.792 228.904 125.984C229.832 126.144 230.84 126.432 231.928 126.848V124.832C231.928 123.616 231.528 122.72 230.728 122.144C229.928 121.536 228.696 121.232 227.032 121.232C226.104 121.232 225.064 121.376 223.912 121.664C222.792 121.92 221.512 122.352 220.072 122.96L217.384 117.536C221.384 115.744 225.176 114.848 228.76 114.848C232.184 114.848 234.84 115.664 236.728 117.296C238.648 118.928 239.608 121.216 239.608 124.16V140H231.928V137.84C230.84 138.736 229.752 139.392 228.664 139.808C227.576 140.192 226.376 140.384 225.064 140.384ZM223.672 132.752C223.672 133.552 224.008 134.176 224.68 134.624C225.352 135.04 226.28 135.248 227.464 135.248C228.296 135.248 229.08 135.152 229.816 134.96C230.552 134.736 231.256 134.416 231.928 134V130.832C231.224 130.672 230.52 130.544 229.816 130.448C229.112 130.352 228.392 130.304 227.656 130.304C226.376 130.304 225.384 130.512 224.68 130.928C224.008 131.344 223.672 131.952 223.672 132.752ZM245.469 140V105.824L253.245 104.624V140H245.469ZM259.297 140V105.824L267.073 104.624V140H259.297ZM125.017 204V170.4H133.273V196.944H149.929V204H125.017ZM166.624 204.48C164.192 204.48 161.984 203.92 160 202.8C158.048 201.648 156.48 200.112 155.296 198.192C154.144 196.24 153.568 194.064 153.568 191.664C153.568 189.232 154.112 187.056 155.2 185.136C156.288 183.216 157.776 181.696 159.664 180.576C161.552 179.424 163.68 178.848 166.048 178.848C168.448 178.848 170.56 179.408 172.384 180.528C174.208 181.648 175.632 183.2 176.656 185.184C177.712 187.136 178.24 189.392 178.24 191.952V193.632H161.2C161.456 194.56 161.856 195.376 162.4 196.08C162.944 196.784 163.616 197.328 164.416 197.712C165.216 198.096 166.08 198.288 167.008 198.288C168.032 198.288 168.96 198.112 169.792 197.76C170.656 197.408 171.36 196.896 171.904 196.224L177.04 200.496C175.44 201.904 173.824 202.928 172.192 203.568C170.56 204.176 168.704 204.48 166.624 204.48ZM161.2 189.216H171.04C170.816 188.32 170.464 187.552 169.984 186.912C169.504 186.272 168.928 185.776 168.256 185.424C167.584 185.072 166.832 184.896 166 184.896C165.2 184.896 164.464 185.072 163.792 185.424C163.152 185.744 162.608 186.224 162.16 186.864C161.744 187.504 161.424 188.288 161.2 189.216ZM190.471 204.384C188.807 204.384 187.319 204.064 186.007 203.424C184.727 202.784 183.719 201.904 182.983 200.784C182.279 199.664 181.927 198.368 181.927 196.896C181.927 195.36 182.311 194.064 183.079 193.008C183.847 191.92 184.951 191.104 186.391 190.56C187.831 189.984 189.559 189.696 191.575 189.696C192.471 189.696 193.383 189.792 194.311 189.984C195.239 190.144 196.247 190.432 197.335 190.848V188.832C197.335 187.616 196.935 186.72 196.135 186.144C195.335 185.536 194.103 185.232 192.439 185.232C191.511 185.232 190.471 185.376 189.319 185.664C188.199 185.92 186.919 186.352 185.479 186.96L182.791 181.536C186.791 179.744 190.583 178.848 194.167 178.848C197.591 178.848 200.247 179.664 202.135 181.296C204.055 182.928 205.015 185.216 205.015 188.16V204H197.335V201.84C196.247 202.736 195.159 203.392 194.071 203.808C192.983 204.192 191.783 204.384 190.471 204.384ZM189.079 196.752C189.079 197.552 189.415 198.176 190.087 198.624C190.759 199.04 191.687 199.248 192.871 199.248C193.703 199.248 194.487 199.152 195.223 198.96C195.959 198.736 196.663 198.416 197.335 198V194.832C196.631 194.672 195.927 194.544 195.223 194.448C194.519 194.352 193.799 194.304 193.063 194.304C191.783 194.304 190.791 194.512 190.087 194.928C189.415 195.344 189.079 195.952 189.079 196.752ZM222.588 214.512C220.732 214.512 218.924 214.32 217.164 213.936C215.436 213.552 213.82 213.008 212.316 212.304L214.716 206.688C216.092 207.328 217.404 207.808 218.652 208.128C219.9 208.448 221.116 208.608 222.3 208.608C224.156 208.608 225.548 208.224 226.476 207.456C227.436 206.688 227.916 205.552 227.916 204.048V200.688C227.116 201.68 226.076 202.48 224.796 203.088C223.516 203.664 222.156 203.952 220.716 203.952C218.7 203.952 216.86 203.392 215.196 202.272C213.532 201.152 212.204 199.648 211.212 197.76C210.252 195.872 209.772 193.776 209.772 191.472C209.772 189.168 210.284 187.088 211.308 185.232C212.332 183.344 213.708 181.856 215.436 180.768C217.196 179.648 219.148 179.088 221.292 179.088C222.604 179.088 223.836 179.36 224.988 179.904C226.172 180.416 227.18 181.184 228.012 182.208V179.232H235.644V204.144C235.644 207.472 234.524 210.032 232.284 211.824C230.044 213.616 226.812 214.512 222.588 214.512ZM223.308 197.616C224.236 197.616 225.084 197.456 225.852 197.136C226.62 196.784 227.308 196.288 227.916 195.648V187.392C227.308 186.752 226.604 186.272 225.804 185.952C225.036 185.632 224.204 185.472 223.308 185.472C222.188 185.472 221.18 185.744 220.284 186.288C219.388 186.8 218.684 187.504 218.172 188.4C217.66 189.296 217.404 190.336 217.404 191.52C217.404 192.672 217.66 193.712 218.172 194.64C218.684 195.568 219.388 196.304 220.284 196.848C221.18 197.36 222.188 197.616 223.308 197.616ZM249.688 204.384C248.088 204.384 246.664 204.032 245.416 203.328C244.2 202.592 243.24 201.6 242.536 200.352C241.832 199.072 241.48 197.6 241.48 195.936V179.232H249.256V193.68C249.256 195.056 249.624 196.176 250.36 197.04C251.128 197.872 252.136 198.288 253.384 198.288C254.216 198.288 254.968 198.128 255.64 197.808C256.344 197.456 256.968 196.928 257.512 196.224V179.232H265.288V204H257.512V199.968C256.552 201.408 255.4 202.512 254.056 203.28C252.744 204.016 251.288 204.384 249.688 204.384ZM283.296 204.48C280.864 204.48 278.656 203.92 276.672 202.8C274.72 201.648 273.152 200.112 271.968 198.192C270.816 196.24 270.24 194.064 270.24 191.664C270.24 189.232 270.784 187.056 271.872 185.136C272.96 183.216 274.448 181.696 276.336 180.576C278.224 179.424 280.352 178.848 282.72 178.848C285.12 178.848 287.232 179.408 289.056 180.528C290.88 181.648 292.304 183.2 293.328 185.184C294.384 187.136 294.912 189.392 294.912 191.952V193.632H277.872C278.128 194.56 278.528 195.376 279.072 196.08C279.616 196.784 280.288 197.328 281.088 197.712C281.888 198.096 282.752 198.288 283.68 198.288C284.704 198.288 285.632 198.112 286.464 197.76C287.328 197.408 288.032 196.896 288.576 196.224L293.712 200.496C292.112 201.904 290.496 202.928 288.864 203.568C287.232 204.176 285.376 204.48 283.296 204.48ZM277.872 189.216H287.712C287.488 188.32 287.136 187.552 286.656 186.912C286.176 186.272 285.6 185.776 284.928 185.424C284.256 185.072 283.504 184.896 282.672 184.896C281.872 184.896 281.136 185.072 280.464 185.424C279.824 185.744 279.28 186.224 278.832 186.864C278.416 187.504 278.096 188.288 277.872 189.216ZM160.393 268L173.497 234.4H182.905L195.817 268H186.889L184.105 259.984H171.817L168.985 268H160.393ZM174.073 253.6H181.897L178.009 242.464L174.073 253.6ZM198.946 278.032V243.232H206.626V246.688C207.458 245.568 208.514 244.688 209.794 244.048C211.106 243.408 212.498 243.088 213.97 243.088C216.018 243.088 217.858 243.664 219.49 244.816C221.154 245.936 222.466 247.44 223.426 249.328C224.418 251.216 224.914 253.328 224.914 255.664C224.914 257.968 224.402 260.064 223.378 261.952C222.354 263.84 220.962 265.344 219.202 266.464C217.474 267.584 215.538 268.144 213.394 268.144C212.05 268.144 210.802 267.904 209.65 267.424C208.53 266.912 207.554 266.192 206.722 265.264V278.032H198.946ZM211.378 261.76C212.53 261.76 213.538 261.504 214.402 260.992C215.298 260.448 216.002 259.712 216.514 258.784C217.026 257.856 217.282 256.8 217.282 255.616C217.282 254.432 217.026 253.392 216.514 252.496C216.002 251.568 215.298 250.848 214.402 250.336C213.506 249.792 212.498 249.52 211.378 249.52C210.418 249.52 209.554 249.696 208.786 250.048C208.05 250.368 207.362 250.864 206.722 251.536V259.792C207.33 260.4 208.034 260.88 208.834 261.232C209.634 261.584 210.482 261.76 211.378 261.76ZM229.837 278.032V243.232H237.517V246.688C238.349 245.568 239.405 244.688 240.685 244.048C241.997 243.408 243.389 243.088 244.861 243.088C246.909 243.088 248.749 243.664 250.381 244.816C252.045 245.936 253.357 247.44 254.317 249.328C255.309 251.216 255.805 253.328 255.805 255.664C255.805 257.968 255.293 260.064 254.269 261.952C253.245 263.84 251.853 265.344 250.093 266.464C248.365 267.584 246.429 268.144 244.285 268.144C242.941 268.144 241.693 267.904 240.541 267.424C239.421 266.912 238.445 266.192 237.613 265.264V278.032H229.837ZM242.269 261.76C243.421 261.76 244.429 261.504 245.293 260.992C246.189 260.448 246.893 259.712 247.405 258.784C247.917 257.856 248.173 256.8 248.173 255.616C248.173 254.432 247.917 253.392 247.405 252.496C246.893 251.568 246.189 250.848 245.293 250.336C244.397 249.792 243.389 249.52 242.269 249.52C241.309 249.52 240.445 249.696 239.677 250.048C238.941 250.368 238.253 250.864 237.613 251.536V259.792C238.221 260.4 238.925 260.88 239.725 261.232C240.525 261.584 241.373 261.76 242.269 261.76ZM125.017 332V298.4H133.273V324.944H149.929V332H125.017ZM166.624 332.48C164.192 332.48 161.984 331.92 160 330.8C158.048 329.648 156.48 328.112 155.296 326.192C154.144 324.24 153.568 322.064 153.568 319.664C153.568 317.232 154.112 315.056 155.2 313.136C156.288 311.216 157.776 309.696 159.664 308.576C161.552 307.424 163.68 306.848 166.048 306.848C168.448 306.848 170.56 307.408 172.384 308.528C174.208 309.648 175.632 311.2 176.656 313.184C177.712 315.136 178.24 317.392 178.24 319.952V321.632H161.2C161.456 322.56 161.856 323.376 162.4 324.08C162.944 324.784 163.616 325.328 164.416 325.712C165.216 326.096 166.08 326.288 167.008 326.288C168.032 326.288 168.96 326.112 169.792 325.76C170.656 325.408 171.36 324.896 171.904 324.224L177.04 328.496C175.44 329.904 173.824 330.928 172.192 331.568C170.56 332.176 168.704 332.48 166.624 332.48ZM161.2 317.216H171.04C170.816 316.32 170.464 315.552 169.984 314.912C169.504 314.272 168.928 313.776 168.256 313.424C167.584 313.072 166.832 312.896 166 312.896C165.2 312.896 164.464 313.072 163.792 313.424C163.152 313.744 162.608 314.224 162.16 314.864C161.744 315.504 161.424 316.288 161.2 317.216ZM190.471 332.384C188.807 332.384 187.319 332.064 186.007 331.424C184.727 330.784 183.719 329.904 182.983 328.784C182.279 327.664 181.927 326.368 181.927 324.896C181.927 323.36 182.311 322.064 183.079 321.008C183.847 319.92 184.951 319.104 186.391 318.56C187.831 317.984 189.559 317.696 191.575 317.696C192.471 317.696 193.383 317.792 194.311 317.984C195.239 318.144 196.247 318.432 197.335 318.848V316.832C197.335 315.616 196.935 314.72 196.135 314.144C195.335 313.536 194.103 313.232 192.439 313.232C191.511 313.232 190.471 313.376 189.319 313.664C188.199 313.92 186.919 314.352 185.479 314.96L182.791 309.536C186.791 307.744 190.583 306.848 194.167 306.848C197.591 306.848 200.247 307.664 202.135 309.296C204.055 310.928 205.015 313.216 205.015 316.16V332H197.335V329.84C196.247 330.736 195.159 331.392 194.071 331.808C192.983 332.192 191.783 332.384 190.471 332.384ZM189.079 324.752C189.079 325.552 189.415 326.176 190.087 326.624C190.759 327.04 191.687 327.248 192.871 327.248C193.703 327.248 194.487 327.152 195.223 326.96C195.959 326.736 196.663 326.416 197.335 326V322.832C196.631 322.672 195.927 322.544 195.223 322.448C194.519 322.352 193.799 322.304 193.063 322.304C191.783 322.304 190.791 322.512 190.087 322.928C189.415 323.344 189.079 323.952 189.079 324.752ZM222.588 342.512C220.732 342.512 218.924 342.32 217.164 341.936C215.436 341.552 213.82 341.008 212.316 340.304L214.716 334.688C216.092 335.328 217.404 335.808 218.652 336.128C219.9 336.448 221.116 336.608 222.3 336.608C224.156 336.608 225.548 336.224 226.476 335.456C227.436 334.688 227.916 333.552 227.916 332.048V328.688C227.116 329.68 226.076 330.48 224.796 331.088C223.516 331.664 222.156 331.952 220.716 331.952C218.7 331.952 216.86 331.392 215.196 330.272C213.532 329.152 212.204 327.648 211.212 325.76C210.252 323.872 209.772 321.776 209.772 319.472C209.772 317.168 210.284 315.088 211.308 313.232C212.332 311.344 213.708 309.856 215.436 308.768C217.196 307.648 219.148 307.088 221.292 307.088C222.604 307.088 223.836 307.36 224.988 307.904C226.172 308.416 227.18 309.184 228.012 310.208V307.232H235.644V332.144C235.644 335.472 234.524 338.032 232.284 339.824C230.044 341.616 226.812 342.512 222.588 342.512ZM223.308 325.616C224.236 325.616 225.084 325.456 225.852 325.136C226.62 324.784 227.308 324.288 227.916 323.648V315.392C227.308 314.752 226.604 314.272 225.804 313.952C225.036 313.632 224.204 313.472 223.308 313.472C222.188 313.472 221.18 313.744 220.284 314.288C219.388 314.8 218.684 315.504 218.172 316.4C217.66 317.296 217.404 318.336 217.404 319.52C217.404 320.672 217.66 321.712 218.172 322.64C218.684 323.568 219.388 324.304 220.284 324.848C221.18 325.36 222.188 325.616 223.308 325.616ZM249.688 332.384C248.088 332.384 246.664 332.032 245.416 331.328C244.2 330.592 243.24 329.6 242.536 328.352C241.832 327.072 241.48 325.6 241.48 323.936V307.232H249.256V321.68C249.256 323.056 249.624 324.176 250.36 325.04C251.128 325.872 252.136 326.288 253.384 326.288C254.216 326.288 254.968 326.128 255.64 325.808C256.344 325.456 256.968 324.928 257.512 324.224V307.232H265.288V332H257.512V327.968C256.552 329.408 255.4 330.512 254.056 331.28C252.744 332.016 251.288 332.384 249.688 332.384ZM283.296 332.48C280.864 332.48 278.656 331.92 276.672 330.8C274.72 329.648 273.152 328.112 271.968 326.192C270.816 324.24 270.24 322.064 270.24 319.664C270.24 317.232 270.784 315.056 271.872 313.136C272.96 311.216 274.448 309.696 276.336 308.576C278.224 307.424 280.352 306.848 282.72 306.848C285.12 306.848 287.232 307.408 289.056 308.528C290.88 309.648 292.304 311.2 293.328 313.184C294.384 315.136 294.912 317.392 294.912 319.952V321.632H277.872C278.128 322.56 278.528 323.376 279.072 324.08C279.616 324.784 280.288 325.328 281.088 325.712C281.888 326.096 282.752 326.288 283.68 326.288C284.704 326.288 285.632 326.112 286.464 325.76C287.328 325.408 288.032 324.896 288.576 324.224L293.712 328.496C292.112 329.904 290.496 330.928 288.864 331.568C287.232 332.176 285.376 332.48 283.296 332.48ZM277.872 317.216H287.712C287.488 316.32 287.136 315.552 286.656 314.912C286.176 314.272 285.6 313.776 284.928 313.424C284.256 313.072 283.504 312.896 282.672 312.896C281.872 312.896 281.136 313.072 280.464 313.424C279.824 313.744 279.28 314.224 278.832 314.864C278.416 315.504 278.096 316.288 277.872 317.216ZM152.486 396V362.4H160.742V388.944H177.398V396H152.486ZM193.997 396.48C191.533 396.48 189.325 395.92 187.373 394.8C185.421 393.68 183.869 392.16 182.717 390.24C181.597 388.288 181.037 386.096 181.037 383.664C181.037 381.232 181.597 379.056 182.717 377.136C183.869 375.184 185.421 373.648 187.373 372.528C189.325 371.408 191.517 370.848 193.949 370.848C196.413 370.848 198.605 371.408 200.525 372.528C202.477 373.648 204.013 375.184 205.133 377.136C206.285 379.056 206.861 381.232 206.861 383.664C206.861 386.096 206.285 388.288 205.133 390.24C204.013 392.16 202.477 393.68 200.525 394.8C198.605 395.92 196.429 396.48 193.997 396.48ZM193.949 390C195.005 390 195.933 389.728 196.733 389.184C197.533 388.64 198.157 387.888 198.605 386.928C199.053 385.968 199.277 384.88 199.277 383.664C199.277 382.416 199.053 381.328 198.605 380.4C198.157 379.44 197.533 378.688 196.733 378.144C195.933 377.6 195.005 377.328 193.949 377.328C192.925 377.328 191.997 377.6 191.165 378.144C190.365 378.688 189.741 379.44 189.293 380.4C188.845 381.328 188.621 382.416 188.621 383.664C188.621 384.88 188.845 385.968 189.293 386.928C189.741 387.888 190.365 388.64 191.165 389.184C191.997 389.728 192.925 390 193.949 390ZM223.525 406.512C221.669 406.512 219.861 406.32 218.101 405.936C216.373 405.552 214.757 405.008 213.253 404.304L215.653 398.688C217.029 399.328 218.341 399.808 219.589 400.128C220.837 400.448 222.053 400.608 223.237 400.608C225.093 400.608 226.485 400.224 227.413 399.456C228.373 398.688 228.853 397.552 228.853 396.048V392.688C228.053 393.68 227.013 394.48 225.733 395.088C224.453 395.664 223.093 395.952 221.653 395.952C219.637 395.952 217.797 395.392 216.133 394.272C214.469 393.152 213.141 391.648 212.149 389.76C211.189 387.872 210.709 385.776 210.709 383.472C210.709 381.168 211.221 379.088 212.245 377.232C213.269 375.344 214.645 373.856 216.373 372.768C218.133 371.648 220.085 371.088 222.229 371.088C223.541 371.088 224.773 371.36 225.925 371.904C227.109 372.416 228.117 373.184 228.949 374.208V371.232H236.581V396.144C236.581 399.472 235.461 402.032 233.221 403.824C230.981 405.616 227.749 406.512 223.525 406.512ZM224.245 389.616C225.173 389.616 226.021 389.456 226.789 389.136C227.557 388.784 228.245 388.288 228.853 387.648V379.392C228.245 378.752 227.541 378.272 226.741 377.952C225.973 377.632 225.141 377.472 224.245 377.472C223.125 377.472 222.117 377.744 221.221 378.288C220.325 378.8 219.621 379.504 219.109 380.4C218.597 381.296 218.341 382.336 218.341 383.52C218.341 384.672 218.597 385.712 219.109 386.64C219.621 387.568 220.325 388.304 221.221 388.848C222.117 389.36 223.125 389.616 224.245 389.616ZM254.466 396.48C252.002 396.48 249.794 395.92 247.842 394.8C245.89 393.68 244.338 392.16 243.186 390.24C242.066 388.288 241.506 386.096 241.506 383.664C241.506 381.232 242.066 379.056 243.186 377.136C244.338 375.184 245.89 373.648 247.842 372.528C249.794 371.408 251.986 370.848 254.418 370.848C256.882 370.848 259.074 371.408 260.994 372.528C262.946 373.648 264.482 375.184 265.602 377.136C266.754 379.056 267.33 381.232 267.33 383.664C267.33 386.096 266.754 388.288 265.602 390.24C264.482 392.16 262.946 393.68 260.994 394.8C259.074 395.92 256.898 396.48 254.466 396.48ZM254.418 390C255.474 390 256.402 389.728 257.202 389.184C258.002 388.64 258.626 387.888 259.074 386.928C259.522 385.968 259.746 384.88 259.746 383.664C259.746 382.416 259.522 381.328 259.074 380.4C258.626 379.44 258.002 378.688 257.202 378.144C256.402 377.6 255.474 377.328 254.418 377.328C253.394 377.328 252.466 377.6 251.634 378.144C250.834 378.688 250.21 379.44 249.762 380.4C249.314 381.328 249.09 382.416 249.09 383.664C249.09 384.88 249.314 385.968 249.762 386.928C250.21 387.888 250.834 388.64 251.634 389.184C252.466 389.728 253.394 390 254.418 390Z" fill="white"/>
</svg>
