<svg width="324" height="324" viewBox="0 0 324 324" fill="none" xmlns="http://www.w3.org/2000/svg">
<circle cx="162" cy="162" r="162" fill="#2C0E4B"/>
<path d="M117.448 61.0001C132.486 60.9848 147.337 64.3208 160.925 70.766C174.512 77.2111 186.494 86.6035 196 98.2607L131.793 162.5L196 226.739C186.494 238.397 174.512 247.789 160.925 254.234C147.337 260.679 132.486 264.015 117.448 264C61.4185 264 16 218.558 16 162.5C16 106.442 61.4185 61.0001 117.448 61.0001ZM117.448 91.45C113.413 91.45 109.542 93.0541 106.688 95.9093C103.834 98.7646 102.231 102.637 102.231 106.675C102.231 110.713 103.834 114.585 106.688 117.441C109.542 120.296 113.413 121.9 117.448 121.9C121.484 121.9 125.355 120.296 128.209 117.441C131.062 114.585 132.666 110.713 132.666 106.675C132.666 102.637 131.062 98.7646 128.209 95.9093C125.355 93.0541 121.484 91.45 117.448 91.45Z" fill="#8027DF"/>
<path d="M208.8 154.867C207.422 151 205.178 147.767 202.067 145.168C198.956 142.569 195.378 141.002 191.333 140.467V144.733L208.8 154.867ZM178 164.733L186 160.067V140.467C184.578 140.6 183.2 140.923 181.867 141.435C180.533 141.947 179.244 142.557 178 143.267V164.733ZM169.067 169.933L172.667 167.8V147.667C170.933 149.622 169.612 151.8 168.701 154.2C167.791 156.6 167.335 159.089 167.333 161.667C167.333 163.089 167.478 164.5 167.768 165.901C168.058 167.302 168.491 168.646 169.067 169.933ZM178 180.067L196.667 169.4L188.667 164.733L171.733 174.6C172.622 175.711 173.578 176.733 174.6 177.667C175.622 178.6 176.756 179.4 178 180.067ZM188.667 183C192 183 195.156 182.244 198.133 180.733C201.111 179.222 203.6 177.133 205.6 174.467L202 172.467L184.4 182.6C185.111 182.733 185.822 182.833 186.533 182.899C187.244 182.964 187.956 182.998 188.667 183ZM208.267 169.933C208.844 168.644 209.278 167.3 209.568 165.899C209.858 164.498 210.002 163.087 210 161.667L191.333 150.867V160.067L208.267 169.933ZM188.667 188.333C184.978 188.333 181.511 187.633 178.267 186.232C175.022 184.831 172.2 182.932 169.8 180.533C167.4 178.135 165.5 175.313 164.101 172.067C162.702 168.82 162.002 165.354 162 161.667C161.998 157.98 162.699 154.513 164.101 151.267C165.504 148.02 167.404 145.198 169.8 142.8C172.196 140.402 175.019 138.502 178.267 137.101C181.515 135.7 184.981 135 188.667 135C192.352 135 195.819 135.7 199.067 137.101C202.315 138.502 205.137 140.402 207.533 142.8C209.93 145.198 211.83 148.02 213.235 151.267C214.639 154.513 215.339 157.98 215.333 161.667C215.328 165.354 214.628 168.82 213.232 172.067C211.836 175.313 209.937 178.135 207.533 180.533C205.13 182.932 202.308 184.832 199.067 186.235C195.826 187.637 192.359 188.337 188.667 188.333Z" fill="#E59341"/>
<path d="M295.8 154.867C294.422 151 292.178 147.767 289.067 145.168C285.956 142.569 282.378 141.002 278.333 140.467V144.733L295.8 154.867ZM265 164.733L273 160.067V140.467C271.578 140.6 270.2 140.923 268.867 141.435C267.533 141.947 266.244 142.557 265 143.267V164.733ZM256.067 169.933L259.667 167.8V147.667C257.933 149.622 256.612 151.8 255.701 154.2C254.791 156.6 254.335 159.089 254.333 161.667C254.333 163.089 254.478 164.5 254.768 165.901C255.058 167.302 255.491 168.646 256.067 169.933ZM265 180.067L283.667 169.4L275.667 164.733L258.733 174.6C259.622 175.711 260.578 176.733 261.6 177.667C262.622 178.6 263.756 179.4 265 180.067ZM275.667 183C279 183 282.156 182.244 285.133 180.733C288.111 179.222 290.6 177.133 292.6 174.467L289 172.467L271.4 182.6C272.111 182.733 272.822 182.833 273.533 182.899C274.244 182.964 274.956 182.998 275.667 183ZM295.267 169.933C295.844 168.644 296.278 167.3 296.568 165.899C296.858 164.498 297.002 163.087 297 161.667L278.333 150.867V160.067L295.267 169.933ZM275.667 188.333C271.978 188.333 268.511 187.633 265.267 186.232C262.022 184.831 259.2 182.932 256.8 180.533C254.4 178.135 252.5 175.313 251.101 172.067C249.702 168.82 249.002 165.354 249 161.667C248.998 157.98 249.699 154.513 251.101 151.267C252.504 148.02 254.404 145.198 256.8 142.8C259.196 140.402 262.019 138.502 265.267 137.101C268.515 135.7 271.981 135 275.667 135C279.352 135 282.819 135.7 286.067 137.101C289.315 138.502 292.137 140.402 294.533 142.8C296.93 145.198 298.83 148.02 300.235 151.267C301.639 154.513 302.339 157.98 302.333 161.667C302.328 165.354 301.628 168.82 300.232 172.067C298.836 175.313 296.937 178.135 294.533 180.533C292.13 182.932 289.308 184.832 286.067 186.235C282.826 187.637 279.359 188.337 275.667 188.333Z" fill="#E59341"/>
</svg>
